<svg id="visual" viewBox="0 0 960 540" width="960" height="540" xmlns="http://www.w3.org/2000/svg" xmlns:xlink="http://www.w3.org/1999/xlink" version="1.1"><g stroke-width="2" stroke-linejoin="bevel"><path d="M497.4 230.4L366.4 276.6L462.6 313.6Z" fill="#8e8d8b" stroke="#007CBE"></path><path d="M323.1 164.3L312.1 245.6L366.4 276.6Z" fill="#8e8d8b" stroke="#007CBE"></path><path d="M401.1 449.7L454.4 382.7L285.8 401.7Z" fill="#8e8d8b" stroke="#007CBE"></path><path d="M366.4 276.6L454.4 382.7L462.6 313.6Z" fill="#8e8d8b" stroke="#007CBE"></path><path d="M604.9 269.4L583.6 182.4L497.4 230.4Z" fill="#8e8d8b" stroke="#007CBE"></path><path d="M497.4 230.4L323.1 164.3L366.4 276.6Z" fill="#8e8d8b" stroke="#007CBE"></path><path d="M323.1 164.3L286.1 169.4L312.1 245.6Z" fill="#8e8d8b" stroke="#007CBE"></path><path d="M497.4 230.4L415.4 85.3L323.1 164.3Z" fill="#8e8d8b" stroke="#007CBE"></path><path d="M323.1 164.3L294.8 124.3L286.1 169.4Z" fill="#8e8d8b" stroke="#007CBE"></path><path d="M604.9 269.4L497.4 230.4L462.6 313.6Z" fill="#8e8d8b" stroke="#007CBE"></path><path d="M497.4 230.4L506.4 72.1L415.4 85.3Z" fill="#8e8d8b" stroke="#007CBE"></path><path d="M618.9 350.7L604.9 269.4L462.6 313.6Z" fill="#8e8d8b" stroke="#007CBE"></path><path d="M415.4 85.3L332.1 107.1L323.1 164.3Z" fill="#8e8d8b" stroke="#007CBE"></path><path d="M332.1 107.1L294.8 124.3L323.1 164.3Z" fill="#8e8d8b" stroke="#007CBE"></path><path d="M401.1 449.7L497.6 428.9L454.4 382.7Z" fill="#8e8d8b" stroke="#007CBE"></path><path d="M454.4 382.7L497.6 428.9L462.6 313.6Z" fill="#8e8d8b" stroke="#007CBE"></path><path d="M556.6 94.3L506.4 72.1L497.4 230.4Z" fill="#8e8d8b" stroke="#007CBE"></path><path d="M285.8 401.7L454.4 382.7L366.4 276.6Z" fill="#8e8d8b" stroke="#007CBE"></path><path d="M583.6 182.4L556.6 94.3L497.4 230.4Z" fill="#8e8d8b" stroke="#007CBE"></path><path d="M286.1 169.4L241.5 173.4L312.1 245.6Z" fill="#8e8d8b" stroke="#007CBE"></path><path d="M312.1 245.6L232.8 316.6L366.4 276.6Z" fill="#8e8d8b" stroke="#007CBE"></path><path d="M294.8 124.3L241.5 173.4L286.1 169.4Z" fill="#8e8d8b" stroke="#007CBE"></path><path d="M556.6 94.3L545.6 80.1L506.4 72.1Z" fill="#8e8d8b" stroke="#007CBE"></path><path d="M212.8 226.4L232.8 316.6L312.1 245.6Z" fill="#8e8d8b" stroke="#007CBE"></path><path d="M232.8 316.6L285.8 401.7L366.4 276.6Z" fill="#8e8d8b" stroke="#007CBE"></path><path d="M497.6 428.9L618.9 350.7L462.6 313.6Z" fill="#8e8d8b" stroke="#007CBE"></path><path d="M241.5 173.4L212.8 226.4L312.1 245.6Z" fill="#8e8d8b" stroke="#007CBE"></path><path d="M285.8 401.7L357.1 466.9L401.1 449.7Z" fill="#8e8d8b" stroke="#007CBE"></path><path d="M469.4 540L549.9 449.9L497.6 428.9Z" fill="#8e8d8b" stroke="#007CBE"></path><path d="M405.4 488.9L497.6 428.9L401.1 449.7Z" fill="#8e8d8b" stroke="#007CBE"></path><path d="M497.6 428.9L549.9 449.9L618.9 350.7Z" fill="#8e8d8b" stroke="#007CBE"></path><path d="M618.9 350.7L667.2 270.6L604.9 269.4Z" fill="#8e8d8b" stroke="#007CBE"></path><path d="M604.9 269.4L678.9 245.6L583.6 182.4Z" fill="#8e8d8b" stroke="#007CBE"></path><path d="M673.9 107.3L559.9 41.1L556.6 94.3Z" fill="#8e8d8b" stroke="#007CBE"></path><path d="M148.3 418.7L229.5 376.6L109.3 331.6Z" fill="#8e8d8b" stroke="#007CBE"></path><path d="M232.8 316.6L229.5 376.6L285.8 401.7Z" fill="#8e8d8b" stroke="#007CBE"></path><path d="M285.8 401.7L289.8 468.9L357.1 466.9Z" fill="#8e8d8b" stroke="#007CBE"></path><path d="M357.1 466.9L405.4 488.9L401.1 449.7Z" fill="#8e8d8b" stroke="#007CBE"></path><path d="M562.6 540L570.6 452.7L549.9 449.9Z" fill="#8e8d8b" stroke="#007CBE"></path><path d="M549.9 449.9L570.6 452.7L618.9 350.7Z" fill="#8e8d8b" stroke="#007CBE"></path><path d="M784.5 252.6L678.9 245.6L667.2 270.6Z" fill="#8e8d8b" stroke="#007CBE"></path><path d="M673.9 107.3L556.6 94.3L583.6 182.4Z" fill="#8e8d8b" stroke="#007CBE"></path><path d="M556.6 94.3L559.9 41.1L545.6 80.1Z" fill="#8e8d8b" stroke="#007CBE"></path><path d="M545.6 80.1L559.9 41.1L506.4 72.1Z" fill="#8e8d8b" stroke="#007CBE"></path><path d="M506.4 72.1L380.4 0L415.4 85.3Z" fill="#8e8d8b" stroke="#007CBE"></path><path d="M415.4 85.3L360.1 0L332.1 107.1Z" fill="#8e8d8b" stroke="#007CBE"></path><path d="M667.2 270.6L678.9 245.6L604.9 269.4Z" fill="#8e8d8b" stroke="#007CBE"></path><path d="M543.6 0L380.4 0L506.4 72.1Z" fill="#8e8d8b" stroke="#007CBE"></path><path d="M264.8 0L209.8 96.1L294.8 124.3Z" fill="#8e8d8b" stroke="#007CBE"></path><path d="M294.8 124.3L209.8 96.1L241.5 173.4Z" fill="#8e8d8b" stroke="#007CBE"></path><path d="M221.5 422.7L289.8 468.9L285.8 401.7Z" fill="#8e8d8b" stroke="#007CBE"></path><path d="M357.1 466.9L405.1 540L405.4 488.9Z" fill="#8e8d8b" stroke="#007CBE"></path><path d="M380.4 0L360.1 0L415.4 85.3Z" fill="#8e8d8b" stroke="#007CBE"></path><path d="M264.8 0L294.8 124.3L332.1 107.1Z" fill="#8e8d8b" stroke="#007CBE"></path><path d="M241.5 173.4L145.3 223.4L212.8 226.4Z" fill="#8e8d8b" stroke="#007CBE"></path><path d="M229.5 376.6L221.5 422.7L285.8 401.7Z" fill="#8e8d8b" stroke="#007CBE"></path><path d="M148.3 418.7L221.5 422.7L229.5 376.6Z" fill="#8e8d8b" stroke="#007CBE"></path><path d="M659.2 0L543.6 0L559.9 41.1Z" fill="#8e8d8b" stroke="#007CBE"></path><path d="M559.9 41.1L543.6 0L506.4 72.1Z" fill="#8e8d8b" stroke="#007CBE"></path><path d="M678.9 245.6L673.9 107.3L583.6 182.4Z" fill="#8e8d8b" stroke="#007CBE"></path><path d="M116.5 148.3L145.3 223.4L241.5 173.4Z" fill="#8e8d8b" stroke="#007CBE"></path><path d="M212.8 226.4L145.3 223.4L232.8 316.6Z" fill="#8e8d8b" stroke="#007CBE"></path><path d="M289.8 468.9L405.1 540L357.1 466.9Z" fill="#8e8d8b" stroke="#007CBE"></path><path d="M405.4 488.9L469.4 540L497.6 428.9Z" fill="#8e8d8b" stroke="#007CBE"></path><path d="M405.1 540L469.4 540L405.4 488.9Z" fill="#8e8d8b" stroke="#007CBE"></path><path d="M360.1 0L264.8 0L332.1 107.1Z" fill="#8e8d8b" stroke="#007CBE"></path><path d="M784.5 252.6L735.2 193.4L678.9 245.6Z" fill="#8e8d8b" stroke="#007CBE"></path><path d="M678.9 245.6L735.2 193.4L673.9 107.3Z" fill="#8e8d8b" stroke="#007CBE"></path><path d="M725.5 384.7L667.2 270.6L618.9 350.7Z" fill="#8e8d8b" stroke="#007CBE"></path><path d="M469.4 540L562.6 540L549.9 449.9Z" fill="#8e8d8b" stroke="#007CBE"></path><path d="M663.2 492.9L725.5 384.7L618.9 350.7Z" fill="#8e8d8b" stroke="#007CBE"></path><path d="M663.2 492.9L618.9 350.7L570.6 452.7Z" fill="#8e8d8b" stroke="#007CBE"></path><path d="M673.9 107.3L659.2 0L559.9 41.1Z" fill="#8e8d8b" stroke="#007CBE"></path><path d="M744.2 120.3L700.2 67.1L673.9 107.3Z" fill="#8e8d8b" stroke="#007CBE"></path><path d="M109.3 331.6L229.5 376.6L232.8 316.6Z" fill="#8e8d8b" stroke="#007CBE"></path><path d="M221.5 422.7L227.8 540L289.8 468.9Z" fill="#8e8d8b" stroke="#007CBE"></path><path d="M289.8 468.9L227.8 540L405.1 540Z" fill="#8e8d8b" stroke="#007CBE"></path><path d="M209.8 96.1L116.5 148.3L241.5 173.4Z" fill="#8e8d8b" stroke="#007CBE"></path><path d="M145.3 223.4L109.3 331.6L232.8 316.6Z" fill="#8e8d8b" stroke="#007CBE"></path><path d="M114.3 115.1L116.5 148.3L209.8 96.1Z" fill="#8e8d8b" stroke="#007CBE"></path><path d="M0 262.4L109.3 331.6L145.3 223.4Z" fill="#8e8d8b" stroke="#007CBE"></path><path d="M606.9 540L663.2 492.9L570.6 452.7Z" fill="#8e8d8b" stroke="#007CBE"></path><path d="M562.6 540L606.9 540L570.6 452.7Z" fill="#8e8d8b" stroke="#007CBE"></path><path d="M264.8 0L186.5 18.1L209.8 96.1Z" fill="#8e8d8b" stroke="#007CBE"></path><path d="M754.5 138.1L744.2 120.3L735.2 193.4Z" fill="#8e8d8b" stroke="#007CBE"></path><path d="M735.2 193.4L744.2 120.3L673.9 107.3Z" fill="#8e8d8b" stroke="#007CBE"></path><path d="M679.9 0L659.2 0L700.2 67.1Z" fill="#8e8d8b" stroke="#007CBE"></path><path d="M700.2 67.1L659.2 0L673.9 107.3Z" fill="#8e8d8b" stroke="#007CBE"></path><path d="M831.7 187.3L754.5 138.1L735.2 193.4Z" fill="#8e8d8b" stroke="#007CBE"></path><path d="M104.3 93.3L114.3 115.1L209.8 96.1Z" fill="#8e8d8b" stroke="#007CBE"></path><path d="M116.5 148.3L0 262.4L145.3 223.4Z" fill="#8e8d8b" stroke="#007CBE"></path><path d="M264.8 0L191.5 0L186.5 18.1Z" fill="#8e8d8b" stroke="#007CBE"></path><path d="M186.5 18.1L104.3 93.3L209.8 96.1Z" fill="#8e8d8b" stroke="#007CBE"></path><path d="M224.5 540L227.8 540L221.5 422.7Z" fill="#8e8d8b" stroke="#007CBE"></path><path d="M725.5 384.7L784.5 252.6L667.2 270.6Z" fill="#8e8d8b" stroke="#007CBE"></path><path d="M148.3 418.7L142.5 455.9L221.5 422.7Z" fill="#8e8d8b" stroke="#007CBE"></path><path d="M0 407.7L142.5 455.9L148.3 418.7Z" fill="#8e8d8b" stroke="#007CBE"></path><path d="M764.5 0L679.9 0L700.2 67.1Z" fill="#8e8d8b" stroke="#007CBE"></path><path d="M764.5 0L700.2 67.1L806.7 35.1Z" fill="#8e8d8b" stroke="#007CBE"></path><path d="M157.3 523.9L224.5 540L221.5 422.7Z" fill="#8e8d8b" stroke="#007CBE"></path><path d="M663.2 492.9L758.2 394.7L725.5 384.7Z" fill="#8e8d8b" stroke="#007CBE"></path><path d="M725.5 384.7L758.2 394.7L784.5 252.6Z" fill="#8e8d8b" stroke="#007CBE"></path><path d="M47.3 0L104.3 93.3L186.5 18.1Z" fill="#8e8d8b" stroke="#007CBE"></path><path d="M114.3 115.1L0 146.3L116.5 148.3Z" fill="#8e8d8b" stroke="#007CBE"></path><path d="M784.5 252.6L794.5 245.4L735.2 193.4Z" fill="#8e8d8b" stroke="#007CBE"></path><path d="M870.7 317.6L794.5 245.4L784.5 252.6Z" fill="#8e8d8b" stroke="#007CBE"></path><path d="M102.3 540L157.3 523.9L142.5 455.9Z" fill="#8e8d8b" stroke="#007CBE"></path><path d="M142.5 455.9L157.3 523.9L221.5 422.7Z" fill="#8e8d8b" stroke="#007CBE"></path><path d="M915.7 219.4L831.7 187.3L794.5 245.4Z" fill="#8e8d8b" stroke="#007CBE"></path><path d="M794.5 245.4L831.7 187.3L735.2 193.4Z" fill="#8e8d8b" stroke="#007CBE"></path><path d="M806.7 35.1L700.2 67.1L744.2 120.3Z" fill="#8e8d8b" stroke="#007CBE"></path><path d="M806.7 35.1L744.2 120.3L754.5 138.1Z" fill="#8e8d8b" stroke="#007CBE"></path><path d="M606.9 540L738.2 540L663.2 492.9Z" fill="#8e8d8b" stroke="#007CBE"></path><path d="M663.2 492.9L800.5 460.9L758.2 394.7Z" fill="#8e8d8b" stroke="#007CBE"></path><path d="M758.2 394.7L870.7 317.6L784.5 252.6Z" fill="#8e8d8b" stroke="#007CBE"></path><path d="M738.2 540L800.5 460.9L663.2 492.9Z" fill="#8e8d8b" stroke="#007CBE"></path><path d="M0 146.3L0 262.4L116.5 148.3Z" fill="#8e8d8b" stroke="#007CBE"></path><path d="M109.3 331.6L0 407.7L148.3 418.7Z" fill="#8e8d8b" stroke="#007CBE"></path><path d="M0 262.4L0 272.6L109.3 331.6Z" fill="#8e8d8b" stroke="#007CBE"></path><path d="M855.5 139.3L806.7 35.1L754.5 138.1Z" fill="#8e8d8b" stroke="#007CBE"></path><path d="M0 482.9L102.3 540L142.5 455.9Z" fill="#8e8d8b" stroke="#007CBE"></path><path d="M157.3 523.9L102.3 540L224.5 540Z" fill="#8e8d8b" stroke="#007CBE"></path><path d="M915.7 219.4L855.5 139.3L831.7 187.3Z" fill="#8e8d8b" stroke="#007CBE"></path><path d="M831.7 187.3L855.5 139.3L754.5 138.1Z" fill="#8e8d8b" stroke="#007CBE"></path><path d="M0 18.1L0 146.3L104.3 93.3Z" fill="#8e8d8b" stroke="#007CBE"></path><path d="M104.3 93.3L0 146.3L114.3 115.1Z" fill="#8e8d8b" stroke="#007CBE"></path><path d="M879.7 385.7L870.7 317.6L758.2 394.7Z" fill="#8e8d8b" stroke="#007CBE"></path><path d="M0 272.6L0 407.7L109.3 331.6Z" fill="#8e8d8b" stroke="#007CBE"></path><path d="M191.5 0L47.3 0L186.5 18.1Z" fill="#8e8d8b" stroke="#007CBE"></path><path d="M960 31.1L820.7 0L806.7 35.1Z" fill="#8e8d8b" stroke="#007CBE"></path><path d="M806.7 35.1L820.7 0L764.5 0Z" fill="#8e8d8b" stroke="#007CBE"></path><path d="M938.7 457.9L879.7 385.7L800.5 460.9Z" fill="#8e8d8b" stroke="#007CBE"></path><path d="M800.5 460.9L879.7 385.7L758.2 394.7Z" fill="#8e8d8b" stroke="#007CBE"></path><path d="M870.7 317.6L915.7 219.4L794.5 245.4Z" fill="#8e8d8b" stroke="#007CBE"></path><path d="M738.2 540L800.5 540L800.5 460.9Z" fill="#8e8d8b" stroke="#007CBE"></path><path d="M800.5 540L815.7 540L800.5 460.9Z" fill="#8e8d8b" stroke="#007CBE"></path><path d="M960 258.6L915.7 219.4L870.7 317.6Z" fill="#8e8d8b" stroke="#007CBE"></path><path d="M855.5 139.3L960 31.1L806.7 35.1Z" fill="#8e8d8b" stroke="#007CBE"></path><path d="M0 407.7L0 482.9L142.5 455.9Z" fill="#8e8d8b" stroke="#007CBE"></path><path d="M47.3 0L0 18.1L104.3 93.3Z" fill="#8e8d8b" stroke="#007CBE"></path><path d="M47.3 0L0 0L0 18.1Z" fill="#8e8d8b" stroke="#007CBE"></path><path d="M0 482.9L0 540L102.3 540Z" fill="#8e8d8b" stroke="#007CBE"></path><path d="M960 356.7L870.7 317.6L879.7 385.7Z" fill="#8e8d8b" stroke="#007CBE"></path><path d="M960 356.7L960 258.6L870.7 317.6Z" fill="#8e8d8b" stroke="#007CBE"></path><path d="M915.7 219.4L960 161.4L855.5 139.3Z" fill="#8e8d8b" stroke="#007CBE"></path><path d="M960 258.6L960 161.4L915.7 219.4Z" fill="#8e8d8b" stroke="#007CBE"></path><path d="M938.7 457.9L960 356.7L879.7 385.7Z" fill="#8e8d8b" stroke="#007CBE"></path><path d="M960 161.4L960 118.3L855.5 139.3Z" fill="#8e8d8b" stroke="#007CBE"></path><path d="M815.7 540L938.7 457.9L800.5 460.9Z" fill="#8e8d8b" stroke="#007CBE"></path><path d="M960 540L960 469.9L938.7 457.9Z" fill="#8e8d8b" stroke="#007CBE"></path><path d="M938.7 457.9L960 469.9L960 356.7Z" fill="#8e8d8b" stroke="#007CBE"></path><path d="M960 118.3L960 31.1L855.5 139.3Z" fill="#8e8d8b" stroke="#007CBE"></path><path d="M960 31.1L960 0L820.7 0Z" fill="#8e8d8b" stroke="#007CBE"></path><path d="M815.7 540L960 540L938.7 457.9Z" fill="#8e8d8b" stroke="#007CBE"></path></g></svg>