<svg id="visual" viewBox="0 0 900 100" width="900" height="100" xmlns="http://www.w3.org/2000/svg" xmlns:xlink="http://www.w3.org/1999/xlink" version="1.1"><rect x="0" y="0" width="900" height="100" fill="#DCDCDD"></rect><path d="M0 5L13.7 8.5C27.3 12 54.7 19 82 22.3C109.3 25.7 136.7 25.3 163.8 27.2C191 29 218 33 245.2 31.3C272.3 29.7 299.7 22.3 327 20.3C354.3 18.3 381.7 21.7 409 20.3C436.3 19 463.7 13 491 9.3C518.3 5.7 545.7 4.3 573 8.7C600.3 13 627.7 23 654.8 24.8C682 26.7 709 20.3 736.2 21.7C763.3 23 790.7 32 818 34.2C845.3 36.3 872.7 31.7 886.3 29.3L900 27L900 101L886.3 101C872.7 101 845.3 101 818 101C790.7 101 763.3 101 736.2 101C709 101 682 101 654.8 101C627.7 101 600.3 101 573 101C545.7 101 518.3 101 491 101C463.7 101 436.3 101 409 101C381.7 101 354.3 101 327 101C299.7 101 272.3 101 245.2 101C218 101 191 101 163.8 101C136.7 101 109.3 101 82 101C54.7 101 27.3 101 13.7 101L0 101Z" fill="#007cbe"></path><path d="M0 28L13.7 25.7C27.3 23.3 54.7 18.7 82 17.8C109.3 17 136.7 20 163.8 21.5C191 23 218 23 245.2 29.2C272.3 35.3 299.7 47.7 327 47.7C354.3 47.7 381.7 35.3 409 27.7C436.3 20 463.7 17 491 15.8C518.3 14.7 545.7 15.3 573 20C600.3 24.7 627.7 33.3 654.8 32.7C682 32 709 22 736.2 24.8C763.3 27.7 790.7 43.3 818 51.2C845.3 59 872.7 59 886.3 59L900 59L900 101L886.3 101C872.7 101 845.3 101 818 101C790.7 101 763.3 101 736.2 101C709 101 682 101 654.8 101C627.7 101 600.3 101 573 101C545.7 101 518.3 101 491 101C463.7 101 436.3 101 409 101C381.7 101 354.3 101 327 101C299.7 101 272.3 101 245.2 101C218 101 191 101 163.8 101C136.7 101 109.3 101 82 101C54.7 101 27.3 101 13.7 101L0 101Z" fill="#0074be"></path><path d="M0 28L13.7 26.8C27.3 25.7 54.7 23.3 82 23.8C109.3 24.3 136.7 27.7 163.8 32.8C191 38 218 45 245.2 45.7C272.3 46.3 299.7 40.7 327 36.2C354.3 31.7 381.7 28.3 409 27.7C436.3 27 463.7 29 491 35.3C518.3 41.7 545.7 52.3 573 53.2C600.3 54 627.7 45 654.8 40.2C682 35.3 709 34.7 736.2 35.7C763.3 36.7 790.7 39.3 818 37C845.3 34.7 872.7 27.3 886.3 23.7L900 20L900 101L886.3 101C872.7 101 845.3 101 818 101C790.7 101 763.3 101 736.2 101C709 101 682 101 654.8 101C627.7 101 600.3 101 573 101C545.7 101 518.3 101 491 101C463.7 101 436.3 101 409 101C381.7 101 354.3 101 327 101C299.7 101 272.3 101 245.2 101C218 101 191 101 163.8 101C136.7 101 109.3 101 82 101C54.7 101 27.3 101 13.7 101L0 101Z" fill="#006bbe"></path><path d="M0 62L13.7 61.2C27.3 60.3 54.7 58.7 82 59.7C109.3 60.7 136.7 64.3 163.8 61.7C191 59 218 50 245.2 44C272.3 38 299.7 35 327 36.7C354.3 38.3 381.7 44.7 409 46C436.3 47.3 463.7 43.7 491 43.3C518.3 43 545.7 46 573 46.7C600.3 47.3 627.7 45.7 654.8 48.8C682 52 709 60 736.2 63.3C763.3 66.7 790.7 65.3 818 65.3C845.3 65.3 872.7 66.7 886.3 67.3L900 68L900 101L886.3 101C872.7 101 845.3 101 818 101C790.7 101 763.3 101 736.2 101C709 101 682 101 654.8 101C627.7 101 600.3 101 573 101C545.7 101 518.3 101 491 101C463.7 101 436.3 101 409 101C381.7 101 354.3 101 327 101C299.7 101 272.3 101 245.2 101C218 101 191 101 163.8 101C136.7 101 109.3 101 82 101C54.7 101 27.3 101 13.7 101L0 101Z" fill="#0062bc"></path><path d="M0 67L13.7 66.5C27.3 66 54.7 65 82 61.7C109.3 58.3 136.7 52.7 163.8 51.7C191 50.7 218 54.3 245.2 54.7C272.3 55 299.7 52 327 50.5C354.3 49 381.7 49 409 52.5C436.3 56 463.7 63 491 62.2C518.3 61.3 545.7 52.7 573 49.5C600.3 46.3 627.7 48.7 654.8 50.5C682 52.3 709 53.7 736.2 57.5C763.3 61.3 790.7 67.7 818 65C845.3 62.3 872.7 50.7 886.3 44.8L900 39L900 101L886.3 101C872.7 101 845.3 101 818 101C790.7 101 763.3 101 736.2 101C709 101 682 101 654.8 101C627.7 101 600.3 101 573 101C545.7 101 518.3 101 491 101C463.7 101 436.3 101 409 101C381.7 101 354.3 101 327 101C299.7 101 272.3 101 245.2 101C218 101 191 101 163.8 101C136.7 101 109.3 101 82 101C54.7 101 27.3 101 13.7 101L0 101Z" fill="#0059ba"></path><path d="M0 59L13.7 58.2C27.3 57.3 54.7 55.7 82 58.7C109.3 61.7 136.7 69.3 163.8 69.2C191 69 218 61 245.2 60.8C272.3 60.7 299.7 68.3 327 72.2C354.3 76 381.7 76 409 74.3C436.3 72.7 463.7 69.3 491 65C518.3 60.7 545.7 55.3 573 56.3C600.3 57.3 627.7 64.7 654.8 66.8C682 69 709 66 736.2 63.5C763.3 61 790.7 59 818 61.2C845.3 63.3 872.7 69.7 886.3 72.8L900 76L900 101L886.3 101C872.7 101 845.3 101 818 101C790.7 101 763.3 101 736.2 101C709 101 682 101 654.8 101C627.7 101 600.3 101 573 101C545.7 101 518.3 101 491 101C463.7 101 436.3 101 409 101C381.7 101 354.3 101 327 101C299.7 101 272.3 101 245.2 101C218 101 191 101 163.8 101C136.7 101 109.3 101 82 101C54.7 101 27.3 101 13.7 101L0 101Z" fill="#004fb6"></path><path d="M0 63L13.7 64.5C27.3 66 54.7 69 82 71.5C109.3 74 136.7 76 163.8 75.2C191 74.3 218 70.7 245.2 70.3C272.3 70 299.7 73 327 72.5C354.3 72 381.7 68 409 66.2C436.3 64.3 463.7 64.7 491 65.5C518.3 66.3 545.7 67.7 573 69.3C600.3 71 627.7 73 654.8 71.7C682 70.3 709 65.7 736.2 65C763.3 64.3 790.7 67.7 818 68.3C845.3 69 872.7 67 886.3 66L900 65L900 101L886.3 101C872.7 101 845.3 101 818 101C790.7 101 763.3 101 736.2 101C709 101 682 101 654.8 101C627.7 101 600.3 101 573 101C545.7 101 518.3 101 491 101C463.7 101 436.3 101 409 101C381.7 101 354.3 101 327 101C299.7 101 272.3 101 245.2 101C218 101 191 101 163.8 101C136.7 101 109.3 101 82 101C54.7 101 27.3 101 13.7 101L0 101Z" fill="#0045b2"></path><path d="M0 81L13.7 79.2C27.3 77.3 54.7 73.7 82 74.2C109.3 74.7 136.7 79.3 163.8 79.5C191 79.7 218 75.3 245.2 76C272.3 76.7 299.7 82.3 327 81.8C354.3 81.3 381.7 74.7 409 72.5C436.3 70.3 463.7 72.7 491 72.3C518.3 72 545.7 69 573 69.8C600.3 70.7 627.7 75.3 654.8 78.5C682 81.7 709 83.3 736.2 81.8C763.3 80.3 790.7 75.7 818 73.7C845.3 71.7 872.7 72.3 886.3 72.7L900 73L900 101L886.3 101C872.7 101 845.3 101 818 101C790.7 101 763.3 101 736.2 101C709 101 682 101 654.8 101C627.7 101 600.3 101 573 101C545.7 101 518.3 101 491 101C463.7 101 436.3 101 409 101C381.7 101 354.3 101 327 101C299.7 101 272.3 101 245.2 101C218 101 191 101 163.8 101C136.7 101 109.3 101 82 101C54.7 101 27.3 101 13.7 101L0 101Z" fill="#003aad"></path><path d="M0 88L13.7 87.7C27.3 87.3 54.7 86.7 82 85.2C109.3 83.7 136.7 81.3 163.8 81.2C191 81 218 83 245.2 83.7C272.3 84.3 299.7 83.7 327 82.8C354.3 82 381.7 81 409 79.7C436.3 78.3 463.7 76.7 491 76.5C518.3 76.3 545.7 77.7 573 80.3C600.3 83 627.7 87 654.8 88.5C682 90 709 89 736.2 86.5C763.3 84 790.7 80 818 78.2C845.3 76.3 872.7 76.7 886.3 76.8L900 77L900 101L886.3 101C872.7 101 845.3 101 818 101C790.7 101 763.3 101 736.2 101C709 101 682 101 654.8 101C627.7 101 600.3 101 573 101C545.7 101 518.3 101 491 101C463.7 101 436.3 101 409 101C381.7 101 354.3 101 327 101C299.7 101 272.3 101 245.2 101C218 101 191 101 163.8 101C136.7 101 109.3 101 82 101C54.7 101 27.3 101 13.7 101L0 101Z" fill="#002ea7"></path><path d="M0 87L13.7 87C27.3 87 54.7 87 82 88.7C109.3 90.3 136.7 93.7 163.8 95C191 96.3 218 95.7 245.2 93.8C272.3 92 299.7 89 327 87.3C354.3 85.7 381.7 85.3 409 86.5C436.3 87.7 463.7 90.3 491 91.3C518.3 92.3 545.7 91.7 573 91.8C600.3 92 627.7 93 654.8 91.8C682 90.7 709 87.3 736.2 87.2C763.3 87 790.7 90 818 90.8C845.3 91.7 872.7 90.3 886.3 89.7L900 89L900 101L886.3 101C872.7 101 845.3 101 818 101C790.7 101 763.3 101 736.2 101C709 101 682 101 654.8 101C627.7 101 600.3 101 573 101C545.7 101 518.3 101 491 101C463.7 101 436.3 101 409 101C381.7 101 354.3 101 327 101C299.7 101 272.3 101 245.2 101C218 101 191 101 163.8 101C136.7 101 109.3 101 82 101C54.7 101 27.3 101 13.7 101L0 101Z" fill="#0d21a1"></path></svg>