<svg id="visual" viewBox="0 0 900 100" width="900" height="100" xmlns="http://www.w3.org/2000/svg" xmlns:xlink="http://www.w3.org/1999/xlink" version="1.1"><rect x="0" y="0" width="900" height="100" fill="#DCDCDD"></rect><path d="M0 40L21.5 44.2C43 48.3 86 56.7 128.8 57.7C171.7 58.7 214.3 52.3 257.2 50.3C300 48.3 343 50.7 385.8 47.7C428.7 44.7 471.3 36.3 514.2 36.3C557 36.3 600 44.7 642.8 47.3C685.7 50 728.3 47 771.2 47.8C814 48.7 857 53.3 878.5 55.7L900 58L900 101L878.5 101C857 101 814 101 771.2 101C728.3 101 685.7 101 642.8 101C600 101 557 101 514.2 101C471.3 101 428.7 101 385.8 101C343 101 300 101 257.2 101C214.3 101 171.7 101 128.8 101C86 101 43 101 21.5 101L0 101Z" fill="#007CBE" stroke-linecap="round" stroke-linejoin="miter"></path></svg>